<mxfile host="app.diagrams.net" agent="Mozilla/5.0 (Macintosh; Intel Mac OS X 10_15_7) AppleWebKit/537.36 (KHTML, like Gecko) Chrome/138.0.0.0 Safari/537.36" version="28.0.7">
  <diagram name="ページ1" id="FiV2jDEClpY6O5zFWRHn">
    <mxGraphModel dx="926" dy="566" grid="1" gridSize="10" guides="1" tooltips="1" connect="1" arrows="0" fold="1" page="1" pageScale="1" pageWidth="827" pageHeight="1169" math="0" shadow="0">
      <root>
        <mxCell id="0" />
        <mxCell id="1" parent="0" />
        <mxCell id="w1_AjiEQwkD-5FOu5qbW-20" value="" style="whiteSpace=wrap;html=1;rounded=0;" parent="1" vertex="1">
          <mxGeometry x="100" y="120" width="160" height="280" as="geometry" />
        </mxCell>
        <mxCell id="w1_AjiEQwkD-5FOu5qbW-39" value="スタート" style="rounded=0;whiteSpace=wrap;html=1;fontFamily=Helvetica;fontSize=11;fontColor=default;labelBackgroundColor=default;" parent="1" vertex="1">
          <mxGeometry x="100" y="120" width="160" height="30" as="geometry" />
        </mxCell>
        <mxCell id="w1_AjiEQwkD-5FOu5qbW-42" value="" style="whiteSpace=wrap;html=1;rounded=0;" parent="1" vertex="1">
          <mxGeometry x="100" y="450" width="160" height="280" as="geometry" />
        </mxCell>
        <mxCell id="w1_AjiEQwkD-5FOu5qbW-41" value="ログイン" style="rounded=0;whiteSpace=wrap;html=1;fontFamily=Helvetica;fontSize=11;fontColor=default;labelBackgroundColor=default;" parent="1" vertex="1">
          <mxGeometry x="100" y="450" width="160" height="30" as="geometry" />
        </mxCell>
        <mxCell id="w1_AjiEQwkD-5FOu5qbW-43" value="新規会員" style="rounded=0;whiteSpace=wrap;html=1;fontFamily=Helvetica;fontSize=11;labelBackgroundColor=default;fillColor=#e1d5e7;strokeColor=#9673a6;" parent="1" vertex="1">
          <mxGeometry x="120" y="290" width="120" height="40" as="geometry" />
        </mxCell>
        <mxCell id="7mOOZiE6UsEzVSwkb19k-4" style="edgeStyle=orthogonalEdgeStyle;rounded=0;orthogonalLoop=1;jettySize=auto;html=1;exitX=0.5;exitY=1;exitDx=0;exitDy=0;" edge="1" parent="1" source="w1_AjiEQwkD-5FOu5qbW-44" target="w1_AjiEQwkD-5FOu5qbW-41">
          <mxGeometry relative="1" as="geometry" />
        </mxCell>
        <mxCell id="w1_AjiEQwkD-5FOu5qbW-44" value="ログイン" style="rounded=0;whiteSpace=wrap;html=1;fontFamily=Helvetica;fontSize=11;fontColor=default;labelBackgroundColor=default;" parent="1" vertex="1">
          <mxGeometry x="120" y="340" width="120" height="40" as="geometry" />
        </mxCell>
        <mxCell id="7mOOZiE6UsEzVSwkb19k-1" value="&lt;font style=&quot;font-size: 19px;&quot;&gt;&amp;nbsp;EZVocab&lt;/font&gt;" style="text;strokeColor=none;align=center;fillColor=none;html=1;verticalAlign=middle;whiteSpace=wrap;rounded=0;fontStyle=1;fontColor=#000000;" vertex="1" parent="1">
          <mxGeometry x="125" y="200" width="110" height="30" as="geometry" />
        </mxCell>
        <mxCell id="7mOOZiE6UsEzVSwkb19k-5" value="&lt;b&gt;ログイン&lt;/b&gt;" style="text;strokeColor=none;align=center;fillColor=none;html=1;verticalAlign=middle;whiteSpace=wrap;rounded=0;" vertex="1" parent="1">
          <mxGeometry x="110" y="490" width="60" height="30" as="geometry" />
        </mxCell>
        <mxCell id="7mOOZiE6UsEzVSwkb19k-6" value="メールアドレス" style="text;strokeColor=none;align=center;fillColor=none;html=1;verticalAlign=middle;whiteSpace=wrap;rounded=0;" vertex="1" parent="1">
          <mxGeometry x="100" y="530" width="115" height="30" as="geometry" />
        </mxCell>
        <mxCell id="7mOOZiE6UsEzVSwkb19k-18" value="" style="endArrow=none;html=1;rounded=0;" edge="1" parent="1">
          <mxGeometry width="50" height="50" relative="1" as="geometry">
            <mxPoint x="115" y="572" as="sourcePoint" />
            <mxPoint x="235" y="572" as="targetPoint" />
          </mxGeometry>
        </mxCell>
        <mxCell id="7mOOZiE6UsEzVSwkb19k-20" value="パスワード" style="text;strokeColor=none;align=center;fillColor=none;html=1;verticalAlign=middle;whiteSpace=wrap;rounded=0;" vertex="1" parent="1">
          <mxGeometry x="100" y="582" width="90" height="30" as="geometry" />
        </mxCell>
        <mxCell id="7mOOZiE6UsEzVSwkb19k-21" value="" style="endArrow=none;html=1;rounded=0;" edge="1" parent="1">
          <mxGeometry width="50" height="50" relative="1" as="geometry">
            <mxPoint x="115" y="620" as="sourcePoint" />
            <mxPoint x="235" y="620" as="targetPoint" />
          </mxGeometry>
        </mxCell>
        <mxCell id="7mOOZiE6UsEzVSwkb19k-22" value="ログイン" style="whiteSpace=wrap;html=1;fillColor=#e1d5e7;strokeColor=#9673a6;" vertex="1" parent="1">
          <mxGeometry x="140" y="650" width="80" height="30" as="geometry" />
        </mxCell>
        <mxCell id="7mOOZiE6UsEzVSwkb19k-23" value="" style="whiteSpace=wrap;html=1;rounded=0;" vertex="1" parent="1">
          <mxGeometry x="360" y="120" width="160" height="280" as="geometry" />
        </mxCell>
        <mxCell id="7mOOZiE6UsEzVSwkb19k-24" value="ユーザー登録" style="rounded=0;whiteSpace=wrap;html=1;fontFamily=Helvetica;fontSize=11;fontColor=default;labelBackgroundColor=default;" vertex="1" parent="1">
          <mxGeometry x="360" y="120" width="160" height="30" as="geometry" />
        </mxCell>
        <mxCell id="7mOOZiE6UsEzVSwkb19k-27" value="&lt;b&gt;ユーザー登録&lt;/b&gt;" style="text;strokeColor=none;align=center;fillColor=none;html=1;verticalAlign=middle;whiteSpace=wrap;rounded=0;" vertex="1" parent="1">
          <mxGeometry x="360" y="150" width="90" height="30" as="geometry" />
        </mxCell>
        <mxCell id="7mOOZiE6UsEzVSwkb19k-28" value="メールアドレス &lt;font style=&quot;color: rgb(255, 0, 0);&quot;&gt;必須&lt;/font&gt;" style="text;strokeColor=none;align=center;fillColor=none;html=1;verticalAlign=middle;whiteSpace=wrap;rounded=0;" vertex="1" parent="1">
          <mxGeometry x="370" y="190" width="115" height="30" as="geometry" />
        </mxCell>
        <mxCell id="7mOOZiE6UsEzVSwkb19k-29" value="" style="endArrow=none;html=1;rounded=0;" edge="1" parent="1">
          <mxGeometry width="50" height="50" relative="1" as="geometry">
            <mxPoint x="375" y="232" as="sourcePoint" />
            <mxPoint x="495" y="232" as="targetPoint" />
          </mxGeometry>
        </mxCell>
        <mxCell id="7mOOZiE6UsEzVSwkb19k-30" value="パスワード &lt;font style=&quot;color: rgb(255, 0, 0);&quot;&gt;必須&lt;/font&gt;" style="text;strokeColor=none;align=center;fillColor=none;html=1;verticalAlign=middle;whiteSpace=wrap;rounded=0;" vertex="1" parent="1">
          <mxGeometry x="370" y="242" width="90" height="30" as="geometry" />
        </mxCell>
        <mxCell id="7mOOZiE6UsEzVSwkb19k-31" value="" style="endArrow=none;html=1;rounded=0;" edge="1" parent="1">
          <mxGeometry width="50" height="50" relative="1" as="geometry">
            <mxPoint x="375" y="280" as="sourcePoint" />
            <mxPoint x="495" y="280" as="targetPoint" />
          </mxGeometry>
        </mxCell>
        <mxCell id="7mOOZiE6UsEzVSwkb19k-32" value="&lt;font style=&quot;color: rgb(0, 0, 0);&quot;&gt;表示名&lt;/font&gt;" style="text;strokeColor=none;align=center;fillColor=none;html=1;verticalAlign=middle;whiteSpace=wrap;rounded=0;" vertex="1" parent="1">
          <mxGeometry x="344" y="290" width="90" height="30" as="geometry" />
        </mxCell>
        <mxCell id="7mOOZiE6UsEzVSwkb19k-33" value="" style="endArrow=none;html=1;rounded=0;" edge="1" parent="1">
          <mxGeometry width="50" height="50" relative="1" as="geometry">
            <mxPoint x="375" y="329" as="sourcePoint" />
            <mxPoint x="495" y="329" as="targetPoint" />
          </mxGeometry>
        </mxCell>
        <mxCell id="7mOOZiE6UsEzVSwkb19k-34" value="新規登録" style="whiteSpace=wrap;html=1;fillColor=#e1d5e7;strokeColor=#9673a6;" vertex="1" parent="1">
          <mxGeometry x="400" y="345" width="80" height="30" as="geometry" />
        </mxCell>
        <mxCell id="7mOOZiE6UsEzVSwkb19k-35" style="edgeStyle=orthogonalEdgeStyle;rounded=0;orthogonalLoop=1;jettySize=auto;html=1;exitX=0;exitY=0.5;exitDx=0;exitDy=0;entryX=1;entryY=0.859;entryDx=0;entryDy=0;entryPerimeter=0;" edge="1" parent="1" source="7mOOZiE6UsEzVSwkb19k-34" target="w1_AjiEQwkD-5FOu5qbW-20">
          <mxGeometry relative="1" as="geometry" />
        </mxCell>
        <mxCell id="7mOOZiE6UsEzVSwkb19k-36" style="edgeStyle=orthogonalEdgeStyle;rounded=0;orthogonalLoop=1;jettySize=auto;html=1;exitX=1;exitY=0.5;exitDx=0;exitDy=0;entryX=-0.012;entryY=0.438;entryDx=0;entryDy=0;entryPerimeter=0;" edge="1" parent="1" source="w1_AjiEQwkD-5FOu5qbW-43" target="7mOOZiE6UsEzVSwkb19k-23">
          <mxGeometry relative="1" as="geometry" />
        </mxCell>
      </root>
    </mxGraphModel>
  </diagram>
</mxfile>
